# xmcd
#
# Track frame offsets:
#	150
#	24153
#	43234
#	61735
#	80628
#	88373
#	102335
#	119714
#	140762
#	158462
#	184731
#	204470
#	223702
#	246041
#
# Disc length: 3581 seconds
#
# Revision: 0
# Processed by: cddbd v1.5.2PL0 Copyright (c) Steve Scherf et al.
# Submitted via: EasyCDDAExtractor 11.0.2.1
#
DISCID=c70dfb0e
DTITLE=Xzibit - Full circle
DYEAR=2006
DGENRE=Rap US
TTITLE0=invade my space ft. jelly roll
TTITLE1=rollin' ft. jelly roll
TTITLE2=ram part division
TTITLE3=say it to my face ft. kurupt &
TTITLE4=the donnell rawlings show (ski
TTITLE5=scandalous bitch
TTITLE6=concentrate
TTITLE7=on bail ft. the game, daz and t-
TTITLE8=family values
TTITLE9=black and brown ft. jelly roll
TTITLE10=the whole world
TTITLE11=poppin' off ft. dj quik and king
TTITLE12=movin' in your chucks ft. too
TTITLE13=thank you
EXTD=
EXTT0=
EXTT1=
EXTT2=
EXTT3=
EXTT4=
EXTT5=
EXTT6=
EXTT7=
EXTT8=
EXTT9=
EXTT10=
EXTT11=
EXTT12=
EXTT13=
PLAYORDER=
